# xmcd CD database file
#
# Track frame offsets:
#	150
#	13862
#	32924
#	54305
#	78545
#	100679
#	117387
#	135793
#	149046
#	167729
#	193272
#	214314
#	236542
#	253874
#	274241
#	300808
#
# Disc length: 4213 seconds
#
# Revision: 0
# Processed by: cddbd v1.5.2PL0 Copyright (c) Steve Scherf et al.
# Submitted via: CDex 1.51
#
DISCID=e3107310
DTITLE=Caroline Jones - The Heart Is Smart
DYEAR=2012
DGENRE=Country
TTITLE0=Soap And Water
TTITLE1=Radar
TTITLE2=Venus
TTITLE3=Close
TTITLE4=Prove You Right
TTITLE5=Under The Cover Of Stars
TTITLE6=The Heart Is Smart
TTITLE7=Picturing Myself With You
TTITLE8=Eye On My Heart
TTITLE9=Dear Kara
TTITLE10=Bye Bye Beautiful
TTITLE11=So Serious
TTITLE12=Tory
TTITLE13=I Still Believe In The American Dream
TTITLE14=Mississippi Man
TTITLE15=Time And Place
EXTD=YEAR: 2012
EXTT0=
EXTT1=
EXTT2=
EXTT3=
EXTT4=
EXTT5=
EXTT6=
EXTT7=
EXTT8=
EXTT9=
EXTT10=
EXTT11=
EXTT12=
EXTT13=
EXTT14=
EXTT15=
PLAYORDER=
